<svg xmlns="http://www.w3.org/2000/svg" width="860" height="220" viewBox="0 0 860 220" role="img" aria-label="Citadel Archive — the organization vault">
  <rect width="860" height="220" fill="#0B0F0E"/>
  <rect x="0.5" y="0.5" width="859" height="219" rx="14" fill="none" stroke="rgba(255,255,255,0.08)"/>
  
  <line x1="520" y1="50" x2="600" y2="50" stroke="rgba(255,255,255,.16)" stroke-width="1.2"/>
  <line x1="600" y1="50" x2="600" y2="120" stroke="rgba(255,255,255,.16)" stroke-width="1.2"/>
  <line x1="600" y1="120" x2="700" y2="120" stroke="rgba(255,255,255,.16)" stroke-width="1.2"/>
  <line x1="700" y1="120" x2="700" y2="60" stroke="rgba(255,255,255,.16)" stroke-width="1.2"/>
  <line x1="700" y1="60" x2="780" y2="60" stroke="rgba(255,255,255,.16)" stroke-width="1.2"/>
  <line x1="780" y1="60" x2="780" y2="170" stroke="rgba(255,255,255,.16)" stroke-width="1.2"/>
  <line x1="780" y1="170" x2="660" y2="170" stroke="rgba(255,255,255,.16)" stroke-width="1.2"/>
  <line x1="520" y1="170" x2="520" y2="120" stroke="rgba(255,255,255,.16)" stroke-width="1.2"/>
  <line x1="520" y1="120" x2="520" y2="50" stroke="rgba(255,255,255,.16)" stroke-width="1.2"/>
  <circle cx="520" cy="50" r="3" fill="#FA008C" opacity=".7"/>
  <circle cx="600" cy="50" r="3" fill="#22D3EE" opacity=".6"/>
  <circle cx="600" cy="120" r="3" fill="#34D399" opacity=".6"/>
  <circle cx="700" cy="120" r="3" fill="#FA008C" opacity=".6"/>
  <circle cx="700" cy="60" r="3" fill="#22D3EE" opacity=".6"/>
  <circle cx="780" cy="60" r="3" fill="#34D399" opacity=".6"/>
  <circle cx="780" cy="170" r="3" fill="#FA008C" opacity=".6"/>
  <circle cx="660" cy="170" r="3" fill="#22D3EE" opacity=".55"/>
  <circle cx="520" cy="170" r="3" fill="#34D399" opacity=".55"/>
  <circle cx="520" cy="120" r="3" fill="#FA008C" opacity=".55"/>

  <rect x="40" y="76.0" width="68.0" height="68.0" rx="14" fill="#0B0F0E" stroke="rgba(255,255,255,0.08)"/>
  <rect x="45.0" y="81.0" width="7" height="7" rx="1.5" fill="#FA008C"/>
<rect x="62.0" y="81.0" width="7" height="7" rx="1.5" fill="#B246AD"/>
<rect x="79.0" y="81.0" width="7" height="7" rx="1.5" fill="#6A8DCD"/>
<rect x="96.0" y="81.0" width="7" height="7" rx="1.5" fill="#22D3EE"/>
<rect x="45.0" y="89.5" width="7" height="7" rx="1.5" fill="#FA008C"/>
<rect x="53.5" y="89.5" width="7" height="7" rx="1.5" fill="#D6239C"/>
<rect x="62.0" y="89.5" width="7" height="7" rx="1.5" fill="#B246AD"/>
<rect x="70.5" y="89.5" width="7" height="7" rx="1.5" fill="#8E6ABD"/>
<rect x="79.0" y="89.5" width="7" height="7" rx="1.5" fill="#6A8DCD"/>
<rect x="87.5" y="89.5" width="7" height="7" rx="1.5" fill="#46B0DE"/>
<rect x="96.0" y="89.5" width="7" height="7" rx="1.5" fill="#22D3EE"/>
<rect x="45.0" y="98.0" width="7" height="7" rx="1.5" fill="#FA008C"/>
<rect x="53.5" y="98.0" width="7" height="7" rx="1.5" fill="#D6239C"/>
<rect x="62.0" y="98.0" width="7" height="7" rx="1.5" fill="#B246AD"/>
<rect x="70.5" y="98.0" width="7" height="7" rx="1.5" fill="#8E6ABD"/>
<rect x="79.0" y="98.0" width="7" height="7" rx="1.5" fill="#6A8DCD"/>
<rect x="87.5" y="98.0" width="7" height="7" rx="1.5" fill="#46B0DE"/>
<rect x="96.0" y="98.0" width="7" height="7" rx="1.5" fill="#22D3EE"/>
<rect x="45.0" y="106.5" width="7" height="7" rx="1.5" fill="#FA008C"/>
<rect x="53.5" y="106.5" width="7" height="7" rx="1.5" fill="#D6239C"/>
<rect x="62.0" y="106.5" width="7" height="7" rx="1.5" fill="#B246AD"/>
<rect x="70.5" y="106.5" width="7" height="7" rx="1.5" fill="#8E6ABD"/>
<rect x="79.0" y="106.5" width="7" height="7" rx="1.5" fill="#6A8DCD"/>
<rect x="87.5" y="106.5" width="7" height="7" rx="1.5" fill="#46B0DE"/>
<rect x="96.0" y="106.5" width="7" height="7" rx="1.5" fill="#22D3EE"/>
<rect x="45.0" y="115.0" width="7" height="7" rx="1.5" fill="#FA008C"/>
<rect x="53.5" y="115.0" width="7" height="7" rx="1.5" fill="#D6239C"/>
<rect x="62.0" y="115.0" width="7" height="7" rx="1.5" fill="#B246AD"/>
<rect x="70.5" y="115.0" width="7" height="7" rx="1.5" fill="#8E6ABD"/>
<rect x="79.0" y="115.0" width="7" height="7" rx="1.5" fill="#6A8DCD"/>
<rect x="87.5" y="115.0" width="7" height="7" rx="1.5" fill="#46B0DE"/>
<rect x="96.0" y="115.0" width="7" height="7" rx="1.5" fill="#22D3EE"/>
<rect x="45.0" y="123.5" width="7" height="7" rx="1.5" fill="#FA008C"/>
<rect x="53.5" y="123.5" width="7" height="7" rx="1.5" fill="#D6239C"/>
<rect x="87.5" y="123.5" width="7" height="7" rx="1.5" fill="#46B0DE"/>
<rect x="96.0" y="123.5" width="7" height="7" rx="1.5" fill="#22D3EE"/>
<rect x="45.0" y="132.0" width="7" height="7" rx="1.5" fill="#FA008C"/>
<rect x="53.5" y="132.0" width="7" height="7" rx="1.5" fill="#D6239C"/>
<rect x="87.5" y="132.0" width="7" height="7" rx="1.5" fill="#46B0DE"/>
<rect x="96.0" y="132.0" width="7" height="7" rx="1.5" fill="#22D3EE"/>
  <text x="128.0" y="98" font-family="Inter, ui-sans-serif, system-ui, sans-serif" font-weight="800" font-size="44" letter-spacing="0.5" fill="#F2F5F3">CITADEL</text>
  <rect x="338.0" y="72" width="72" height="20" rx="4" fill="rgba(255,255,255,0.07)"/>
  <text x="346.0" y="86" font-family="ui-monospace, Menlo, monospace" font-weight="600" font-size="11" letter-spacing="0.5" fill="rgba(255,255,255,0.55)">ARCHIVE</text>
  <text x="128.0" y="122" font-family="ui-monospace, Menlo, monospace" font-weight="500" font-size="13" letter-spacing="2" fill="rgba(255,255,255,0.42)">THE ORGANIZATION VAULT</text>
  <line x1="40" y1="188" x2="820" y2="188" stroke="rgba(255,255,255,0.08)"/>
  <text x="40" y="208" font-family="ui-monospace, Menlo, monospace" font-weight="500" font-size="10.5" letter-spacing="1" fill="rgba(255,255,255,0.32)">SELF-HOSTED ORGANIZATION VAULT</text>
  <text x="820" y="208" text-anchor="end" font-family="ui-monospace, Menlo, monospace" font-weight="500" font-size="10.5" letter-spacing="1" fill="rgba(255,255,255,0.32)">CLI · MCP · HTTP API · WEB UI</text>
</svg>
